# xmcd
#
# Track frame offsets:
#	150
#	15659
#	31215
#	50299
#	66561
#	81952
#	99169
#	114460
#	125867
#	140013
#	154251
#	168940
#
# Disc length: 2505 seconds
#
# Revision: 0
# Processed by: cddbd v1.5.2PL0 Copyright (c) Steve Scherf et al.
# Submitted via: audiograbber 1.83.01
#
DISCID=a009c70c
DTITLE=Katie Melua - Call Off The Search
DYEAR=2004
DGENRE=Pop
TTITLE0=Call Off The Search
TTITLE1=Crawling Up A Hill
TTITLE2=The Closest Thing To Crazy
TTITLE3=My Aphrodisiac Is You
TTITLE4=Learnin' The Blues
TTITLE5=Blame It On The Moon
TTITLE6=Belfast (Penguins And Cats)
TTITLE7=I Think It's Going To Rain Today
TTITLE8=Mockingbird Song
TTITLE9=Tiger In The Night
TTITLE10=Faraway Voice
TTITLE11=Lilac Wine
EXTD=
EXTT0=
EXTT1=
EXTT2=
EXTT3=
EXTT4=
EXTT5=
EXTT6=
EXTT7=
EXTT8=
EXTT9=
EXTT10=
EXTT11=
PLAYORDER=
